<svg xmlns="http://www.w3.org/2000/svg" viewBox="0 0 64 64" role="img" aria-labelledby="title desc">
  <title id="title">바람길 제주</title>
  <desc id="desc">하늘색 바탕 위 제주 화산석과 바람을 표현한 아이콘</desc>
  <defs>
    <linearGradient id="sky" x1="8" y1="4" x2="58" y2="62" gradientUnits="userSpaceOnUse">
      <stop stop-color="#92DDFB"/>
      <stop offset="1" stop-color="#42B9E8"/>
    </linearGradient>
    <filter id="shadow" x="-20%" y="-20%" width="140%" height="140%">
      <feDropShadow dx="0" dy="2" stdDeviation="2" flood-color="#17374A" flood-opacity=".2"/>
    </filter>
  </defs>
  <rect x="3" y="3" width="58" height="58" rx="17" fill="url(#sky)"/>
  <path d="M13 40c6-1 10-6 19-6 7 0 11 4 19 4-2 8-9 13-19 13-9 0-16-4-19-11Z" fill="#243C4B" filter="url(#shadow)"/>
  <path d="M18 30c8 0 11-8 20-8 5 0 9 2 11 5" fill="none" stroke="#fff" stroke-width="5" stroke-linecap="round"/>
  <path d="M23 18c4 0 6-4 10-4 3 0 5 1 6 3" fill="none" stroke="#E7FAFF" stroke-width="3.5" stroke-linecap="round" opacity=".96"/>
  <circle cx="47" cy="16" r="4" fill="#FFD487"/>
</svg>
