<svg xmlns="http://www.w3.org/2000/svg" viewBox="0 0 44 44" aria-hidden="true">
  <defs>
    <linearGradient id="g" x1="5" y1="3" x2="39" y2="42" gradientUnits="userSpaceOnUse">
      <stop stop-color="#9BE1FC"/>
      <stop offset="1" stop-color="#45BCEB"/>
    </linearGradient>
  </defs>
  <rect x="1" y="1" width="42" height="42" rx="13" fill="url(#g)"/>
  <path d="M8.7 28.3c4.4-.7 7.3-4.3 13.3-4.3 4.7 0 7.5 2.7 13.4 2.8-1.8 5.7-6.7 9.1-13.4 9.1-6.1 0-10.8-2.8-13.3-7.6Z" fill="#243C4B"/>
  <path d="M11.9 20.5c5.8 0 8-5.6 14.4-5.6 3.6 0 6.1 1.2 7.8 3.4" fill="none" stroke="#fff" stroke-width="3.7" stroke-linecap="round"/>
  <path d="M16 12.9c3.1 0 4.5-2.8 7.5-2.8 2 0 3.5.7 4.5 1.8" fill="none" stroke="#EAFBFF" stroke-width="2.4" stroke-linecap="round"/>
</svg>
